# This file uses centimeters as units for non-parametric coordinates.

mtllib Parede(meia).mtl
g default
v -239.999954 0.000000 20.824356
v 239.999954 0.000000 20.824356
v -239.999954 640.000000 20.824051
v 239.999954 640.000000 20.824051
v -239.999954 0.000000 -20.824051
v 239.999954 0.000000 -20.824051
v 239.999954 640.000000 -20.824356
v -239.999954 640.000000 -20.824356
vt 0.294922 0.773437
vt 0.294922 0.809025
vt 0.705078 0.809025
vt 0.705078 0.773437
vt 0.294922 0.226562
vt 0.294922 0.773438
vt 0.705078 0.773438
vt 0.705078 0.226562
vt 0.705078 0.190974
vt 0.705078 0.226562
vt 0.294922 0.226562
vt 0.294922 0.190974
vt 0.294922 0.226563
vt 0.705078 0.226563
vt 0.705078 0.773438
vt 0.294922 0.773438
vt 0.259334 0.226562
vt 0.294922 0.226562
vt 0.294922 0.773438
vt 0.259334 0.773438
vt 0.740666 0.773437
vt 0.705078 0.773437
vt 0.705078 0.226563
vt 0.740666 0.226563
vn 0.000000 -0.000000 -1.000000
vn 0.000000 -0.000000 -1.000000
vn 0.000000 -0.000000 -1.000000
vn 0.000000 -0.000000 -1.000000
vn 0.000000 0.000000 1.000000
vn 0.000000 0.000000 1.000000
vn 0.000000 0.000000 1.000000
vn 0.000000 0.000000 1.000000
vn 0.000000 -1.000000 0.000000
vn 0.000000 -1.000000 0.000000
vn 0.000000 -1.000000 0.000000
vn 0.000000 -1.000000 0.000000
vn 1.000000 0.000000 0.000000
vn 1.000000 0.000000 0.000000
vn 1.000000 0.000000 0.000000
vn 1.000000 0.000000 0.000000
vn 0.000000 1.000000 0.000000
vn 0.000000 1.000000 0.000000
vn 0.000000 1.000000 0.000000
vn 0.000000 1.000000 0.000000
vn -1.000000 0.000000 0.000000
vn -1.000000 0.000000 0.000000
vn -1.000000 0.000000 0.000000
vn -1.000000 0.000000 0.000000
s off
g Meia_Parede
usemtl initialShadingGroup
f 5/5/1 8/6/2 7/7/3 6/8/4
f 1/13/5 2/14/6 4/15/7 3/16/8
f 1/1/9 5/2/10 6/3/11 2/4/12
f 2/17/13 6/18/14 7/19/15 4/20/16
f 4/9/17 7/10/18 8/11/19 3/12/20
f 3/21/21 8/22/22 5/23/23 1/24/24
