# This file uses centimeters as units for non-parametric coordinates.

mtllib Parede.mtl
g default
v -479.999664 -0.000000 20.824509
v 480.000183 -0.000000 20.824509
v -479.999664 639.999939 20.824203
v 480.000183 639.999939 20.824203
v -479.999664 -0.000000 -20.824051
v 480.000183 -0.000000 -20.824051
v 480.000183 639.999939 -20.824356
v -479.999664 639.999939 -20.824356
vt 0.910157 0.190974
vt 0.910157 0.226562
vt 0.910156 0.773438
vt 0.910156 0.809026
vt 0.089844 0.226563
vt 0.910156 0.226563
vt 0.910156 0.773438
vt 0.089844 0.773438
vt 0.089843 0.226562
vt 0.089843 0.190974
vt 0.089844 0.809026
vt 0.089844 0.773438
vt 0.910156 0.226563
vt 0.910156 0.773438
vt 0.089844 0.773438
vt 0.089844 0.226563
vt 0.054255 0.226562
vt 0.089843 0.226562
vt 0.089844 0.773438
vt 0.054255 0.773438
vt 0.945745 0.773437
vt 0.910156 0.773437
vt 0.910157 0.226563
vt 0.945745 0.226563
vn 0.000000 -0.000000 -1.000000
vn 0.000000 -0.000000 -1.000000
vn 0.000000 -0.000000 -1.000000
vn 0.000000 -0.000000 -1.000000
vn 0.000000 0.000000 1.000000
vn 0.000000 0.000000 1.000000
vn 0.000000 0.000000 1.000000
vn 0.000000 0.000000 1.000000
vn 0.000000 -1.000000 0.000000
vn 0.000000 -1.000000 0.000000
vn 0.000000 -1.000000 0.000000
vn 0.000000 -1.000000 0.000000
vn 1.000000 -0.000000 0.000000
vn 1.000000 -0.000000 0.000000
vn 1.000000 -0.000000 0.000000
vn 1.000000 -0.000000 0.000000
vn 0.000000 1.000000 0.000000
vn 0.000000 1.000000 0.000000
vn 0.000000 1.000000 0.000000
vn 0.000000 1.000000 0.000000
vn -1.000000 0.000000 0.000000
vn -1.000000 0.000000 0.000000
vn -1.000000 0.000000 0.000000
vn -1.000000 0.000000 0.000000
s off
g Parede
usemtl initialShadingGroup
f 5/13/1 8/14/2 7/15/3 6/16/4
f 1/5/5 2/6/6 4/7/7 3/8/8
f 1/1/9 5/2/10 6/9/11 2/10/12
f 2/17/13 6/18/14 7/19/15 4/20/16
f 4/3/17 7/4/18 8/11/19 3/12/20
f 3/21/21 8/22/22 5/23/23 1/24/24
