# This file uses centimeters as units for non-parametric coordinates.

mtllib Piso 2.mtl
g default
v -1439.999878 -0.000000 1439.999634
v 1439.999878 -0.000000 1439.999634
v -1439.999878 0.000000 -1440.000000
v 1439.999878 0.000000 -1440.000000
v 479.999847 0.000000 -1440.000610
v 479.999847 -0.000000 1439.999634
v -480.000000 0.000000 -1440.000610
v -480.000000 -0.000000 1439.999634
v -480.000000 0.000000 -4320.000488
v 479.999847 0.000000 -4320.000488
v -480.000000 0.000000 -5280.000000
v 479.999847 0.000000 -5280.000000
v 1439.999756 0.000000 -4320.000488
v 1439.999756 0.000000 -5280.000000
v 2399.999512 0.000000 -4320.000488
v 2399.999512 0.000000 -5280.000000
v 3359.999512 0.000000 -4320.000488
v 3359.999512 0.000000 -5280.000000
v 1439.999756 0.000000 -3360.000244
v 2399.999512 0.000000 -3360.000244
v 6239.999512 0.000000 -4320.000488
v 6239.999512 0.000000 -5280.000000
v 3359.999512 0.000000 -3360.000244
v 6239.999512 0.000000 -3360.000244
v 3359.999512 0.000000 -6240.000488
v 6239.999512 0.000000 -6240.000488
v 5279.999512 0.000000 -3360.000244
v 5279.999512 0.000000 -4320.000488
v 5279.999512 0.000000 -5280.000000
v 5279.999512 0.000000 -6240.000488
v 4319.999512 0.000000 -3360.000244
v 4319.999512 0.000000 -4320.000488
v 4319.999512 0.000000 -5280.000000
v 4319.999512 0.000000 -6240.000488
v -3359.999512 0.000000 -4320.000488
v -3359.999512 0.000000 -5280.000000
v -6239.999512 0.000000 -4320.000488
v -6239.999512 0.000000 -5280.000000
v -3359.999512 0.000000 -3360.000244
v -6239.999512 0.000000 -3360.000244
v -3359.999512 0.000000 -6240.000000
v -6239.999512 0.000000 -6240.000000
v 4319.999512 0.000000 -7200.000000
v 5279.999512 0.000000 -7200.000000
v 4319.999512 0.000000 -8160.000000
v 5279.999512 0.000000 -8160.000000
v 479.999847 0.000000 -7200.000000
v 479.999847 0.000000 -8160.000000
v -480.000000 0.000000 -7200.000000
v -480.000000 0.000000 -8160.000000
v 479.999847 0.000000 -9120.000977
v -480.000000 0.000000 -9120.000977
v 479.999786 0.000000 -11040.000977
v -480.000061 0.000000 -11040.000977
v 1439.999756 0.000000 -9120.000977
v 1439.999756 0.000000 -11040.000977
v -1439.999756 0.000000 -9120.000977
v -1439.999756 0.000000 -11040.000977
v 1439.999756 0.000000 -10560.000977
v 479.999817 0.000000 -10560.000977
v -480.000061 0.000000 -10560.000977
v -1439.999756 0.000000 -10560.000977
v 1439.999756 0.000000 -9600.000977
v 479.999847 0.000000 -9600.000977
v -480.000031 0.000000 -9600.000977
v -1439.999756 0.000000 -9600.000977
v 3359.999512 0.000000 -9600.000977
v 3359.999512 0.000000 -10560.000977
v 4319.999512 0.000000 -9600.000977
v 4319.999512 0.000000 -10560.000977
v 3359.999512 0.000000 -11520.000977
v 4319.999512 0.000000 -11520.000977
v 3359.999512 0.000000 -12480.000977
v 4319.999512 0.000000 -12480.000977
v 5279.999512 0.000000 -11520.000977
v 5279.999512 0.000000 -12480.000977
v 7199.999512 0.000000 -11520.000977
v 7199.999512 0.000000 -12480.000977
v 5279.999512 0.000000 -12959.999023
v 7199.999512 0.000000 -12959.999023
v 5279.999512 0.000000 -11039.999023
v 7199.999512 0.000000 -11039.999023
v 3359.999512 0.000000 -13440.000977
v 4319.999512 0.000000 -13440.000977
v 3359.999512 0.000000 -14400.000977
v 4319.999512 0.000000 -14400.000977
v 2399.999512 0.000000 -13440.000977
v 2399.999512 0.000000 -14400.000977
v -4319.999512 0.000000 -9600.000977
v -4319.999512 0.000000 -10560.000977
v -3359.999512 0.000000 -10560.000977
v -3359.999512 0.000000 -9600.000977
v -3359.999512 0.000000 -12480.000977
v -4319.999512 0.000000 -12480.000977
v -5279.999512 0.000000 -9600.000977
v -5279.999512 0.000000 -10560.000977
v -4319.999512 0.000000 -8640.001953
v -5279.999512 0.000000 -8640.001953
v -4319.999512 0.000000 -6720.002441
v -5279.999512 0.000000 -6720.002441
v -4799.999512 0.000000 -10560.000977
v -4799.999512 0.000000 -9600.000977
v -4799.999512 0.000000 -8640.001953
v -4799.999512 0.000000 -6720.002441
v -5759.999512 0.000000 -8640.001953
v -5759.999512 0.000000 -6720.002441
v -3839.999512 0.000000 -8640.001953
v -3839.999512 0.000000 -6720.002441
v -3359.999512 0.000000 -13440.000977
v -4319.999512 0.000000 -13440.000977
v -1439.999756 0.000000 -12480.000977
v -1439.999756 0.000000 -13440.000977
v -480.000061 0.000000 -12480.000977
v -480.000061 0.000000 -13440.000977
v 479.999786 -0.000000 -12480.000977
v 479.999786 -0.000000 -13440.000977
v 1439.999756 -0.000000 -12480.000977
v 1439.999756 -0.000000 -13440.000977
v -480.000061 0.000000 -16800.000000
v 479.999786 -0.000000 -16800.000000
v -1439.999756 0.000000 -12000.000977
v -480.000061 0.000000 -12000.000977
v 479.999786 -0.000000 -12000.000977
v 1439.999756 -0.000000 -12000.000977
v 1439.999756 -0.000000 -13920.000977
v 479.999786 -0.000000 -13920.000977
v -480.000061 0.000000 -13920.000977
v -1439.999756 0.000000 -13920.000977
v -480.000061 0.000000 -17760.000000
v 479.999786 -0.000000 -17760.000000
v -3360.000000 0.000000 -16800.000000
v -3360.000000 0.000000 -17760.000000
v 3359.999512 -0.000000 -16800.000000
v 3359.999512 -0.000000 -17760.000000
v 4319.999512 -0.000000 -16800.000000
v 4319.999512 -0.000000 -17760.000000
v -4319.999512 0.000000 -16800.000000
v -4319.999512 0.000000 -17760.000000
v -3360.000000 0.000000 -19680.000000
v -4319.999512 0.000000 -19680.000000
v 3359.999512 -0.000000 -19680.000000
v 4319.999512 -0.000000 -19680.000000
v -3360.000000 0.000000 -21120.000000
v -4319.999512 0.000000 -21120.000000
v 3359.999512 -0.000000 -21119.998047
v 4319.999512 -0.000000 -21119.998047
v -4799.999512 0.000000 -19680.000000
v -4799.999512 0.000000 -21120.000000
v -2880.000000 0.000000 -19680.000000
v -2880.000000 0.000000 -21120.000000
v 2879.999512 -0.000000 -19680.000000
v 2879.999512 -0.000000 -21119.998047
v 4799.999512 -0.000000 -19680.000000
v 4799.999512 -0.000000 -21119.998047
v -480.000061 0.000000 -18239.998047
v 479.999786 -0.000000 -18239.998047
v -480.000061 0.000000 -21600.000000
v 479.999786 -0.000000 -21600.000000
v 2399.999512 -0.000000 -18239.998047
v 2399.999512 -0.000000 -21600.000000
v -2400.000000 0.000000 -18239.998047
v -2400.000000 0.000000 -21600.000000
vt 0.500000 0.004883
vt 0.541260 0.004883
vt 0.541260 0.128662
vt 0.500000 0.128662
vt 0.458740 0.004883
vt 0.458740 0.128662
vt 0.417480 0.004883
vt 0.417480 0.128662
vt 0.500000 0.252441
vt 0.458740 0.252441
vt 0.500000 0.293701
vt 0.458740 0.293701
vt 0.541260 0.252441
vt 0.541260 0.293701
vt 0.582520 0.252441
vt 0.582520 0.293701
vt 0.623779 0.252441
vt 0.623779 0.293701
vt 0.541260 0.211182
vt 0.582520 0.211182
vt 0.665039 0.252441
vt 0.665039 0.293701
vt 0.623779 0.211182
vt 0.665039 0.211182
vt 0.665039 0.334961
vt 0.623779 0.334961
vt 0.747559 0.252441
vt 0.706299 0.252441
vt 0.706299 0.211182
vt 0.747559 0.211182
vt 0.706299 0.293701
vt 0.747559 0.293701
vt 0.706299 0.334961
vt 0.747559 0.334961
vt 0.334961 0.293701
vt 0.334961 0.252441
vt 0.211182 0.293701
vt 0.211182 0.252441
vt 0.211182 0.211182
vt 0.334961 0.211182
vt 0.334961 0.334961
vt 0.211182 0.334961
vt 0.706299 0.376221
vt 0.665039 0.376221
vt 0.706299 0.417480
vt 0.665039 0.417480
vt 0.500000 0.417480
vt 0.500000 0.376221
vt 0.458740 0.417480
vt 0.458740 0.376221
vt 0.500000 0.458740
vt 0.458740 0.458740
vt 0.500000 0.479370
vt 0.458740 0.479370
vt 0.541260 0.458740
vt 0.541260 0.479370
vt 0.417480 0.479370
vt 0.417480 0.458740
vt 0.500000 0.541260
vt 0.500000 0.520630
vt 0.541260 0.520630
vt 0.541260 0.541260
vt 0.458740 0.520630
vt 0.458740 0.541260
vt 0.417480 0.520630
vt 0.417480 0.541260
vt 0.623779 0.479370
vt 0.623779 0.520630
vt 0.665039 0.479370
vt 0.665039 0.520630
vt 0.665039 0.561890
vt 0.623779 0.561890
vt 0.623779 0.603149
vt 0.665039 0.603149
vt 0.706299 0.561890
vt 0.706299 0.603149
vt 0.788818 0.561890
vt 0.788818 0.603149
vt 0.788818 0.623779
vt 0.706299 0.623779
vt 0.706299 0.541260
vt 0.788818 0.541260
vt 0.665039 0.644409
vt 0.623779 0.644409
vt 0.665039 0.685669
vt 0.623779 0.685669
vt 0.582520 0.685669
vt 0.582520 0.644409
vt 0.334961 0.479370
vt 0.334961 0.520630
vt 0.293701 0.520630
vt 0.293701 0.479370
vt 0.334961 0.603149
vt 0.293701 0.603149
vt 0.273071 0.520630
vt 0.273071 0.479370
vt 0.273071 0.438110
vt 0.293701 0.438110
vt 0.273071 0.355591
vt 0.293701 0.355591
vt 0.252441 0.520630
vt 0.252441 0.479370
vt 0.252441 0.438110
vt 0.252441 0.355591
vt 0.231812 0.438110
vt 0.231812 0.355591
vt 0.314331 0.355591
vt 0.314331 0.438110
vt 0.334961 0.644409
vt 0.293701 0.644409
vt 0.417480 0.603149
vt 0.417480 0.644409
vt 0.458740 0.603149
vt 0.458740 0.644409
vt 0.500000 0.603149
vt 0.500000 0.644409
vt 0.541260 0.603149
vt 0.541260 0.644409
vt 0.417480 0.582519
vt 0.458740 0.582519
vt 0.500000 0.582519
vt 0.541260 0.582519
vt 0.458740 0.665039
vt 0.417480 0.665039
vt 0.500000 0.665039
vt 0.541260 0.665039
vt 0.500000 0.788818
vt 0.458740 0.788818
vt 0.500000 0.830078
vt 0.458740 0.830078
vt 0.334961 0.830078
vt 0.334961 0.788818
vt 0.623779 0.788818
vt 0.623779 0.830078
vt 0.665039 0.788818
vt 0.665039 0.830078
vt 0.293701 0.830078
vt 0.293701 0.788818
vt 0.334961 0.912598
vt 0.293701 0.912598
vt 0.665039 0.912598
vt 0.623779 0.912598
vt 0.334961 0.974487
vt 0.293701 0.974487
vt 0.355591 0.912598
vt 0.355591 0.974487
vt 0.665039 0.974487
vt 0.623779 0.974487
vt 0.685669 0.912598
vt 0.685669 0.974487
vt 0.273071 0.974487
vt 0.273071 0.912598
vt 0.603149 0.974487
vt 0.603149 0.912598
vt 0.500000 0.850708
vt 0.458740 0.850708
vt 0.500000 0.995117
vt 0.458740 0.995117
vt 0.582520 0.850708
vt 0.582520 0.995117
vt 0.376221 0.995117
vt 0.376221 0.850708
vn -0.000000 1.000000 0.000000
vn -0.000000 1.000000 0.000000
vn -0.000000 1.000000 0.000000
vn -0.000000 1.000000 0.000000
vn 0.000000 1.000000 0.000000
vn 0.000000 1.000000 0.000000
vn 0.000000 1.000000 0.000000
vn 0.000000 1.000000 0.000000
vn 0.000000 1.000000 0.000000
vn 0.000000 1.000000 0.000000
vn 0.000000 1.000000 0.000000
vn 0.000000 1.000000 0.000000
vn 0.000000 1.000000 0.000000
vn 0.000000 1.000000 0.000000
vn 0.000000 1.000000 0.000000
vn 0.000000 1.000000 0.000000
vn 0.000000 1.000000 0.000000
vn 0.000000 1.000000 0.000000
vn 0.000000 1.000000 0.000000
vn 0.000000 1.000000 0.000000
vn 0.000000 1.000000 0.000000
vn 0.000000 1.000000 0.000000
vn 0.000000 1.000000 0.000000
vn 0.000000 1.000000 0.000000
vn 0.000000 1.000000 0.000000
vn 0.000000 1.000000 0.000000
vn 0.000000 1.000000 0.000000
vn 0.000000 1.000000 0.000000
vn 0.000000 1.000000 0.000000
vn 0.000000 1.000000 0.000000
vn 0.000000 1.000000 0.000000
vn 0.000000 1.000000 0.000000
vn 0.000000 1.000000 0.000000
vn 0.000000 1.000000 0.000000
vn 0.000000 1.000000 0.000000
vn 0.000000 1.000000 0.000000
vn 0.000000 1.000000 0.000000
vn 0.000000 1.000000 0.000000
vn 0.000000 1.000000 0.000000
vn 0.000000 1.000000 0.000000
vn 0.000000 1.000000 0.000000
vn 0.000000 1.000000 0.000000
vn 0.000000 1.000000 0.000000
vn 0.000000 1.000000 0.000000
vn 0.000000 1.000000 0.000000
vn 0.000000 1.000000 0.000000
vn 0.000000 1.000000 0.000000
vn 0.000000 1.000000 0.000000
vn 0.000000 1.000000 0.000000
vn 0.000000 1.000000 0.000000
vn 0.000000 1.000000 0.000000
vn 0.000000 1.000000 0.000000
vn 0.000000 1.000000 0.000000
vn 0.000000 1.000000 0.000000
vn 0.000000 1.000000 0.000000
vn 0.000000 1.000000 0.000000
vn 0.000000 1.000000 0.000000
vn 0.000000 1.000000 0.000000
vn 0.000000 1.000000 0.000000
vn 0.000000 1.000000 0.000000
vn 0.000000 1.000000 0.000000
vn 0.000000 1.000000 0.000000
vn 0.000000 1.000000 0.000000
vn 0.000000 1.000000 0.000000
vn 0.000000 1.000000 0.000000
vn 0.000000 1.000000 0.000000
vn 0.000000 1.000000 0.000000
vn 0.000000 1.000000 0.000000
vn 0.000000 1.000000 -0.000000
vn -0.000000 1.000000 -0.000000
vn -0.000000 1.000000 -0.000000
vn 0.000000 1.000000 -0.000000
vn -0.000000 1.000000 0.000000
vn -0.000000 1.000000 0.000000
vn 0.000000 1.000000 -0.000000
vn 0.000000 1.000000 -0.000000
vn -0.000000 1.000000 0.000000
vn -0.000000 1.000000 0.000000
vn -0.000000 1.000000 0.000000
vn -0.000000 1.000000 0.000000
vn 0.000000 1.000000 -0.000000
vn 0.000000 1.000000 0.000000
vn 0.000000 1.000000 0.000000
vn 0.000000 1.000000 0.000000
vn -0.000000 1.000000 0.000000
vn -0.000000 1.000000 0.000000
vn -0.000000 1.000000 0.000000
vn -0.000000 1.000000 0.000000
vn -0.000000 1.000000 0.000000
vn -0.000000 1.000000 0.000000
vn -0.000000 1.000000 0.000000
vn -0.000000 1.000000 0.000000
vn -0.000000 1.000000 0.000000
vn -0.000000 1.000000 0.000000
vn -0.000000 1.000000 0.000000
vn -0.000000 1.000000 0.000000
vn -0.000000 1.000000 0.000000
vn -0.000000 1.000000 0.000000
vn -0.000000 1.000000 0.000000
vn -0.000000 1.000000 0.000000
vn -0.000000 1.000000 0.000000
vn -0.000000 1.000000 0.000000
vn -0.000000 1.000000 0.000000
vn -0.000000 1.000000 0.000000
vn -0.000000 1.000000 0.000000
vn -0.000000 1.000000 0.000000
vn 0.000000 1.000000 0.000000
vn 0.000000 1.000000 0.000000
vn 0.000000 1.000000 0.000000
vn 0.000000 1.000000 0.000000
vn 0.000000 1.000000 0.000000
vn 0.000000 1.000000 0.000000
vn 0.000000 1.000000 0.000000
vn 0.000000 1.000000 0.000000
vn 0.000000 1.000000 0.000000
vn 0.000000 1.000000 0.000000
vn 0.000000 1.000000 0.000000
vn 0.000000 1.000000 0.000000
vn 0.000000 1.000000 0.000000
vn 0.000000 1.000000 0.000000
vn 0.000000 1.000000 0.000000
vn 0.000000 1.000000 0.000000
vn 0.000000 1.000000 0.000000
vn 0.000000 1.000000 0.000000
vn 0.000000 1.000000 0.000000
vn 0.000000 1.000000 0.000000
vn 0.000000 1.000000 0.000000
vn 0.000000 1.000000 0.000000
vn 0.000000 1.000000 0.000000
vn 0.000000 1.000000 0.000000
vn 0.000000 1.000000 0.000000
vn 0.000000 1.000000 0.000000
vn 0.000000 1.000000 0.000000
vn 0.000000 1.000000 0.000000
vn 0.000000 1.000000 0.000000
vn 0.000000 1.000000 0.000000
vn 0.000000 1.000000 0.000000
vn 0.000000 1.000000 0.000000
vn 0.000000 1.000000 0.000000
vn 0.000000 1.000000 0.000000
vn 0.000000 1.000000 0.000000
vn 0.000000 1.000000 0.000000
vn 0.000000 1.000000 0.000000
vn 0.000000 1.000000 0.000000
vn 0.000000 1.000000 0.000000
vn 0.000000 1.000000 0.000000
vn 0.000000 1.000000 0.000000
vn 0.000000 1.000000 0.000000
vn 0.000000 1.000000 0.000000
vn 0.000000 1.000000 0.000000
vn 0.000000 1.000000 0.000000
vn 0.000000 1.000000 0.000000
vn 0.000000 1.000000 0.000000
vn 0.000000 1.000000 0.000000
vn 0.000000 1.000000 0.000000
vn 0.000000 1.000000 0.000000
vn 0.000000 1.000000 0.000000
vn 0.000000 1.000000 0.000000
vn 0.000000 1.000000 0.000000
vn 0.000000 1.000000 0.000000
vn 0.000000 1.000000 0.000000
vn 0.000000 1.000000 0.000000
vn 0.000000 1.000000 0.000000
vn 0.000000 1.000000 0.000000
vn 0.000000 1.000000 0.000000
vn 0.000000 1.000000 0.000000
vn 0.000000 1.000000 0.000000
vn 0.000000 1.000000 0.000000
vn 0.000000 1.000000 0.000000
vn 0.000000 1.000000 0.000000
vn 0.000000 1.000000 0.000000
vn 0.000000 1.000000 0.000000
vn 0.000000 1.000000 0.000000
vn 0.000000 1.000000 0.000000
vn 0.000000 1.000000 0.000000
vn 0.000000 1.000000 0.000000
vn 0.000000 1.000000 0.000000
vn 0.000000 1.000000 0.000000
vn 0.000000 1.000000 0.000000
vn 0.000000 1.000000 0.000000
s 1
g Piso
usemtl lambert2SG
f 6/1/1 2/2/2 4/3/3 5/4/4
f 8/5/5 6/1/1 5/4/4 7/6/6
f 1/7/7 8/5/5 7/6/6 3/8/8
s off
f 7/6/9 5/4/10 10/9/11 9/10/12
s 2
f 9/10/13 10/9/14 12/11/15 11/12/16
f 12/11/15 10/9/14 13/13/17 14/14/18
s 3
f 14/14/19 13/13/20 15/15/21 16/16/22
f 16/16/22 15/15/21 17/17/23 18/18/24
f 15/15/21 13/13/20 19/19/25 20/20/26
s 4
f 18/18/27 17/17/28 32/21/29 33/22/30
s 5
f 32/21/31 17/17/32 23/23/33 31/24/34
s 6
f 18/18/35 33/22/36 34/25/37 25/26/38
s 5
f 21/27/39 28/28/40 27/29/41 24/30/42
s 4
f 29/31/43 28/28/44 21/27/45 22/32/46
s 6
f 30/33/47 29/31/48 22/32/49 26/34/50
s 5
f 28/28/40 32/21/31 31/24/34 27/29/41
s 4
f 33/22/30 32/21/29 28/28/44 29/31/43
s 6
f 34/25/37 33/22/36 29/31/48 30/33/47
s 2
f 9/10/13 11/12/16 36/35/51 35/36/52
f 35/36/52 36/35/51 38/37/53 37/38/54
f 35/36/52 37/38/54 40/39/55 39/40/56
f 38/37/53 36/35/51 41/41/57 42/42/58
s 6
f 34/25/37 30/33/47 44/43/59 43/44/60
f 43/44/60 44/43/59 46/45/61 45/46/62
f 43/44/60 45/46/62 48/47/63 47/48/64
f 47/48/64 48/47/63 50/49/65 49/50/66
f 50/49/65 48/47/63 51/51/67 52/52/68
s 7
f 52/52/69 51/51/70 64/53/71 65/54/72
f 64/53/71 51/51/70 55/55/73 63/56/74
f 52/52/69 65/54/72 66/57/75 57/58/76
f 53/59/77 60/60/78 59/61/79 56/62/80
f 61/63/81 60/60/78 53/59/77 54/64/82
f 62/65/83 61/63/81 54/64/82 58/66/84
f 60/60/78 64/53/71 63/56/74 59/61/79
f 65/54/72 64/53/71 60/60/78 61/63/81
f 66/57/75 65/54/72 61/63/81 62/65/83
f 59/61/79 63/56/74 67/67/85 68/68/86
f 68/68/86 67/67/85 69/69/87 70/70/88
f 68/68/86 70/70/88 72/71/89 71/72/90
f 73/73/91 71/72/90 72/71/89 74/74/92
f 72/71/89 75/75/93 76/76/94 74/74/92
f 76/76/94 75/75/93 77/77/95 78/78/96
f 76/76/94 78/78/96 80/79/97 79/80/98
f 77/77/95 75/75/93 81/81/99 82/82/100
f 73/73/91 74/74/92 84/83/101 83/84/102
f 83/84/102 84/83/101 86/85/103 85/86/104
f 83/84/102 85/86/104 88/87/105 87/88/106
f 92/89/107 66/57/75 62/65/83 91/90/108
f 92/89/107 91/90/108 90/91/109 89/92/110
f 90/91/109 91/90/108 93/93/111 94/94/112
f 89/92/110 90/91/109 101/95/113 102/96/114
f 89/92/110 102/96/114 103/97/115 97/98/116
f 97/98/116 103/97/115 104/99/117 99/100/118
f 102/96/114 101/95/113 96/101/119 95/102/120
f 103/97/115 102/96/114 95/102/120 98/103/121
f 104/99/117 103/97/115 98/103/121 100/104/122
f 100/104/122 98/103/121 105/105/123 106/106/124
f 97/98/116 99/100/118 108/107/125 107/108/126
f 94/94/112 93/93/111 109/109/127 110/110/128
f 109/109/127 93/93/111 111/111/129 112/112/130
f 112/112/130 111/111/129 113/113/131 114/114/132
f 114/114/132 113/113/131 115/115/133 116/116/134
f 116/116/134 115/115/133 117/117/135 118/118/136
f 113/113/131 111/111/129 121/119/137 122/120/138
f 115/115/133 113/113/131 122/120/138 123/121/139
f 117/117/135 115/115/133 123/121/139 124/122/140
f 112/112/130 114/114/132 127/123/141 128/124/142
f 114/114/132 116/116/134 126/125/143 127/123/141
f 116/116/134 118/118/136 125/126/144 126/125/143
f 127/123/141 126/125/143 120/127/145 119/128/146
f 119/128/146 120/127/145 130/129/147 129/130/148
f 119/128/146 129/130/148 132/131/149 131/132/150
f 130/129/147 120/127/145 133/133/151 134/134/152
f 134/134/152 133/133/151 135/135/153 136/136/154
f 131/132/150 132/131/149 138/137/155 137/138/156
f 138/137/155 132/131/149 139/139/157 140/140/158
f 134/134/152 136/136/154 142/141/159 141/142/160
f 140/140/158 139/139/157 143/143/161 144/144/162
f 143/143/161 139/139/157 149/145/163 150/146/164
f 141/142/160 142/141/159 146/147/165 145/148/166
f 146/147/165 142/141/159 153/149/167 154/150/168
f 140/140/158 144/144/162 148/151/169 147/152/170
f 141/142/160 145/148/166 152/153/171 151/154/172
f 129/130/148 130/129/147 156/155/173 155/156/174
f 155/156/174 156/155/173 158/157/175 157/158/176
f 158/157/175 156/155/173 159/159/177 160/160/178
f 155/156/174 157/158/176 162/161/179 161/162/180
